<svg xmlns="http://www.w3.org/2000/svg" viewBox="0 0 256 256">
  <defs>
    <linearGradient id="langchainGrad" x1="0%" y1="0%" x2="100%" y2="100%">
      <stop offset="0%" style="stop-color:#1C3C3C"/>
      <stop offset="100%" style="stop-color:#2D5A5A"/>
    </linearGradient>
  </defs>
  <circle cx="128" cy="128" r="120" fill="url(#langchainGrad)"/>
  <path fill="#FFFFFF" d="M128 60c-8.8 0-16 7.2-16 16s7.2 16 16 16 16-7.2 16-16-7.2-16-16-16zm-40 48c-8.8 0-16 7.2-16 16s7.2 16 16 16 16-7.2 16-16-7.2-16-16-16zm80 0c-8.8 0-16 7.2-16 16s7.2 16 16 16 16-7.2 16-16-7.2-16-16-16zm-40 48c-8.8 0-16 7.2-16 16s7.2 16 16 16 16-7.2 16-16-7.2-16-16-16z"/>
  <path stroke="#FFFFFF" stroke-width="3" fill="none" d="M128 92v32M100 124l28 32M156 124l-28 32"/>
</svg>
